# xmcd CD database file
#
# Track frame offsets:
#	150
#	15044
#	34144
#	52898
#	67219
#	82089
#	96442
#	116092
#	131325
#	146284
#	164353
#
# Disc length: 2411 seconds
#
# Revision: 0
# Processed by: cddbd v1.5.2PL0 Copyright (c) Steve Scherf et al.
# Submitted via: CDex 1.51
#
DISCID=8e09690b
DTITLE=Tracy Killeen - Drivers Seat
DYEAR=2010
DGENRE=Country
TTITLE0=Metrosexual Craze
TTITLE1=Brave
TTITLE2=Seen You Before
TTITLE3=Something Bout A Storm
TTITLE4=42
TTITLE5=The Yodellin Blues
TTITLE6=Don't Rush
TTITLE7=Your Love's A Rock
TTITLE8=Good Lies
TTITLE9=Crazy In Love
TTITLE10=Drivers Seat
EXTD=YEAR: 2010
EXTT0=
EXTT1=
EXTT2=
EXTT3=
EXTT4=
EXTT5=
EXTT6=
EXTT7=
EXTT8=
EXTT9=
EXTT10=
PLAYORDER=
